<?xml version="1.0" encoding="UTF-8"?>
<!DOCTYPE svg PUBLIC "-//W3C//DTD SVG 1.1//EN" "http://www.w3.org/Graphics/SVG/1.1/DTD/svg11.dtd">
<!-- Creator: CorelDRAW X8 -->
<svg xmlns="http://www.w3.org/2000/svg" xml:space="preserve" width="720px" height="219px" version="1.1" shape-rendering="geometricPrecision" text-rendering="geometricPrecision" image-rendering="optimizeQuality" fill-rule="evenodd" clip-rule="evenodd"
viewBox="0 0 741927 225577"
 xmlns:xlink="http://www.w3.org/1999/xlink">
 <g id="Plan_x0020_1">
  <metadata id="CorelCorpID_0Corel-Layer"/>
  <polygon fill="#D7D7D7" points="405863,147850 336064,137436 336064,69461 405862,79669 "/>
  <polygon fill="#D7D7D7" points="42804,216064 340935,121667 340925,182762 50227,225577 "/>
  <polygon fill="#F37469" points="336064,34231 46274,77172 0,160607 46274,220563 336064,177622 "/>
  <polygon fill="#EBEBEB" points="698399,8169 401152,103524 401162,42429 691088,0 "/>
  <polygon fill="#EBEBEB" points="405863,140328 336064,129914 336064,61938 405862,72147 "/>
  <polygon fill="#7ACD90" points="405863,190943 695653,148002 741927,64566 695653,4611 405863,47552 "/>
  <path fill="#FEFEFE" fill-rule="nonzero" d="M464951 56898l8440 -1313 0 -3657 -20960 3260 0 3657 8394 -1305 0 29823 4126 -642 0 -29823zm11535 28029l17866 -2778 0 -3658 -13739 2137 0 -12004 12426 -1933 0 -3657 -12426 1932 0 -10504 13176 -2049 0 -3657 -17303 2691 0 33480zm21711 -3376l4126 -642 0 -27103 94 -15 10738 25434 5674 -883 0 -33480 -4126 642 0 27947 -94 14 -11066 -26226 -5346 831 0 33481zm36247 -35460l8440 -1313 0 -3657 -20960 3260 0 3657 8394 -1305 0 29823 4126 -642 0 -29823zm11535 28029l17866 -2778 0 -3658 -13739 2137 0 -12004 12426 -1933 0 -3657 -12426 1932 0 -10503 13176 -2050 0 -3657 -17303 2691 0 33480zm25837 -34122l4924 -766c3892,-605 6049,1076 6049,4405 0,6518 -4455,7164 -6893,7543l-4080 635 0 -11817zm-4126 30746l4126 -642 0 -14911 5580 -868c2110,-328 4596,-433 4971,4104l281 5161c141,1619 375,4021 1126,4655l4970 -773c-985,-457 -1641,-1292 -1782,-4975l-281 -5677c-188,-2831 -1782,-4975 -4736,-4844l0 -93c3892,-1497 5158,-5679 5158,-9243 0,-5299 -3282,-7883 -8581,-7059l-10832 1685 0 33480zm36012 -5600l9379 -1459c9190,-1429 11301,-10057 11301,-18497 0,-9238 -1360,-16529 -11723,-14918l-8957 1393 0 33481zm4127 -30746l4314 -671c7503,-1167 7925,5707 7925,12178 0,6002 -798,13441 -7925,14550l-4314 671 0 -26728zm21523 26757l17866 -2779 0 -3657 -13740 2136 0 -12004 12427 -1932 0 -3657 -12427 1932 0 -10504 13177 -2049 0 -3657 -17303 2690 0 33481zm-174952 67309l6753 -1050 0 -14161 3610 -562c2767,-430 3846,997 3986,3600l188 6396c47,1305 140,2557 844,3385l7315 -1137 0 -282c-1266,-506 -1454,-2212 -1501,-5769 -140,-7058 -797,-9488 -5392,-9383l0 -94c3798,-1388 5580,-4619 5580,-9121 0,-5767 -3329,-8110 -8910,-7242l-12473 1940 0 33480zm6753 -29560l3188 -496c3142,-489 4690,818 4690,3913 0,3611 -1829,5302 -5065,5805l-2813 438 0 -9660zm19319 -7975l0 33481 19178 -2983 0 -5533 -12426 1932 0 -9003 11254 -1750 0 -5533 -11254 1750 0 -7878 11958 -1859 0 -5533 -18710 2909zm6987 -3056l4408 -685 4595 -7467 -6471 1006 -2532 7146zm15146 -386l0 23352c0,8956 5205,9976 10691,9122 5486,-853 10691,-3960 10691,-12447l0 -23352 -6752 1050 0 23352c0,3329 -750,5931 -3939,6427 -3189,496 -3939,-1873 -3939,-5202l0 -23352 -6752 1050zm24336 19239l0 1360c0,6190 3001,9287 10645,8098 7315,-1137 11629,-4997 11629,-12078 0,-4126 -1313,-6407 -6377,-7870l-5205 -1442c-2861,-727 -3470,-1945 -3470,-4008 0,-2017 797,-4016 3845,-4490 2626,-409 3657,1213 3657,4401l6471 -1006 0 -938c0,-6424 -4361,-8325 -10363,-7391 -6424,999 -10363,4894 -10363,11458 0,5533 2767,7682 8769,8765 4502,801 6002,1787 6002,4788 0,2813 -1969,4432 -4033,4753 -3563,554 -4454,-1323 -4454,-4465l0 -985 -6753 1050zm24337 -3784l0 1359c0,6190 3001,9287 10644,8099 7315,-1138 11629,-4998 11629,-12078 0,-4127 -1313,-6408 -6377,-7871l-5205 -1441c-2860,-728 -3470,-1946 -3470,-4009 0,-2016 797,-4016 3845,-4490 2626,-408 3658,1213 3658,4402l6471 -1007 0 -937c0,-6425 -4361,-8325 -10363,-7392 -6424,999 -10363,4894 -10363,11459 0,5533 2766,7682 8769,8765 4501,800 6002,1786 6002,4787 0,2814 -1970,4433 -4033,4754 -3564,554 -4455,-1324 -4455,-4466l0 -984 -6752 1050zm32730 5366l0 -33480 -6752 1050 0 33481 6752 -1051zm5017 -780l6753 -1050 0 -14161 3610 -561c2767,-431 3845,996 3986,3600l188 6395c47,1306 140,2557 844,3385l7315 -1137 0 -282c-1266,-506 -1454,-2212 -1501,-5768 -141,-7059 -797,-9489 -5392,-9384l0 -94c3798,-1387 5580,-4619 5580,-9120 0,-5768 -3330,-8111 -8910,-7243l-12473 1940 0 33480zm6753 -29560l3188 -496c3142,-488 4689,818 4689,3913 0,3611 -1828,5302 -5064,5805l-2813 438 0 -9660zm76527 50932l0 6190 6471 -1007 0 -6189 -6471 1006zm281 -16971l0 -1173c0,-3048 938,-5304 3329,-5676 2110,-328 3189,1099 3189,3490 0,1876 -469,3590 -1782,5248l-1782 2293c-2110,2720 -2907,4673 -2907,7814l0 1829 5814 -904 0 -703c0,-2392 657,-3666 2298,-5750l1876 -2402c2251,-2929 2954,-5196 2954,-7775 0,-5486 -3282,-8539 -9894,-7511 -6190,962 -9285,5477 -9285,11104l0 1078 6190 -962zm-218186 23567l0 33480 19179 -2982 0 -5533 -12426 1932 0 -9003 11254 -1750 0 -5533 -11254 1750 0 -7878 11957 -1859 0 -5534 -18710 2910zm22555 -3508l0 33481 6190 -963 0 -23445 94 -15 8253 22162 7690 -1196 0 -33480 -6190 963 0 22929 -94 15 -8159 -21661 -7784 1210zm25603 19043l0 1359c0,6190 3001,9287 10644,8098 7315,-1137 11629,-4997 11629,-12077 0,-4127 -1313,-6408 -6377,-7871l-5205 -1441c-2860,-728 -3470,-1946 -3470,-4009 0,-2016 797,-4016 3845,-4490 2626,-408 3658,1213 3658,4402l6471 -1007 0 -938c0,-6424 -4361,-8324 -10363,-7391 -6424,999 -10363,4894 -10363,11459 0,5533 2767,7682 8769,8765 4501,800 6002,1786 6002,4787 0,2813 -1970,4433 -4033,4753 -3564,555 -4455,-1323 -4455,-4465l0 -985 -6752 1051zm25649 -27013l0 33480 19179 -2982 0 -5533 -12426 1932 0 -9003 11254 -1750 0 -5533 -11254 1750 0 -7878 11957 -1859 0 -5533 -18710 2909zm22696 29951l6190 -962 0 -26729 93 -14 5956 25802 5251 -817 5956 -27654 93 -15 0 26728 6190 -962 0 -33480 -9988 1553 -4830 24384 -93 15 -4783 -22890 -10035 1561 0 33480zm41311 -21476l2907 -453c2955,-459 5159,324 5159,4216 0,3892 -2204,5407 -5440,5910l-2626 408 0 -10081zm0 -13458l2439 -380c3376,-525 4876,414 4876,3603 0,3189 -1641,4663 -5392,5246l-1923 299 0 -8768zm-6752 29560l11394 -1772c7878,-1225 10457,-6175 10457,-11427 0,-4501 -2345,-6903 -6096,-6836l0 -93c3376,-1463 5065,-4492 5065,-8103 0,-6424 -3986,-7867 -9519,-7007l-11301 1758 0 33480zm44781 -6964l0 -5533 -11957 1859 0 -27947 -6753 1050 0 33480 18710 -2909zm3001 -33947l0 33480 19179 -2982 0 -5534 -12427 1933 0 -9003 11254 -1750 0 -5534 -11254 1750 0 -7877 11958 -1860 0 -5533 -18710 2910z"/>
  <polygon fill="#4FBC6C" points="405863,147900 405863,72147 426908,75210 426970,151124 "/>
  <polygon fill="#F85142" points="336064,61938 336064,66503 336064,137486 317045,134806 316972,59308 "/>
  <polygon fill="#FFCB7A" points="321439,130856 422149,145620 422149,79121 321439,64357 "/>
  <path fill="#323232" d="M356197 85432c-10784,-1865 -19527,5365 -19527,16149 0,10785 8743,21039 19527,22905 10784,1865 19527,-5365 19527,-16149 0,-10784 -8743,-21039 -19527,-22905zm-14058 26125l14059 5041 14057 -145 -4792 -14361 -9292 -12735 -9271 9459 -4760 12741 0 0 -1 0 0 0zm14059 -8947l-31 -10943 -8003 8169 -4116 11004 9398 -3842 2721 8146 2770 -7172 5233 -5367 -7971 3263 -8035 -6032 8035 2774 0 0 0 0 -1 0z"/>
  <path fill="#323232" fill-rule="nonzero" d="M380420 90829l0 25064c0,9612 5587,12472 11475,13418 5888,946 11475,-623 11475,-9732l0 -25063 -7248 -1165 0 25064c0,3573 -805,6111 -4227,5562 -3422,-550 -4228,-3347 -4228,-6920l0 -25064 -7247 -1164z"/>
  <path fill="#FEFEFE" fill-rule="nonzero" d="M144334 81856l4923 -766c3892,-605 6049,1076 6049,4405 0,6518 -4455,7164 -6893,7543l-4079 634 0 -11816zm-4127 30746l4127 -642 0 -14911 5580 -868c2110,-328 4595,-433 4970,4104l281 5161c141,1619 375,4021 1126,4655l4970 -774c-985,-456 -1641,-1292 -1782,-4974l-281 -5677c-188,-2831 -1782,-4975 -4736,-4844l0 -94c3892,-1496 5158,-5678 5158,-9242 0,-5299 -3282,-7883 -8581,-7059l-10832 1684 0 33481zm24337 -3785l4126 -642 0 -33480 -4126 642 0 33480zm27900 -29144c-141,-6168 -2954,-8872 -9378,-7873 -8488,1320 -9801,7667 -9801,10761 0,12286 15803,4342 15803,13814 0,3564 -2532,6302 -5815,6813 -6002,933 -6283,-3056 -6283,-6807l-4127 642c0,7127 2298,10802 10129,9585 4736,-737 10410,-3823 10410,-11560 0,-12239 -15803,-4154 -15803,-13579 0,-3564 2017,-5754 5533,-6300 3939,-613 5205,1629 5205,5145l4127 -641zm18475 18415c-797,640 -1829,1082 -3048,1271 -5721,890 -6471,-5277 -6471,-13014 0,-7737 750,-14137 6471,-15027 5721,-889 6471,5277 6471,13015 0,4314 -188,8047 -1266,10794l-3095 -2332 -2297 2889 3235 2404zm6096 4585l2298 -2795 -3377 -2570c2251,-3679 2720,-8863 2720,-13646 0,-8441 -1547,-17156 -10785,-15720 -9238,1437 -10785,10634 -10785,19074 0,8441 1547,17156 10785,15720 2392,-372 4314,-1281 5768,-2585l3376 2522zm6236 -12927c0,6940 3048,10124 9801,9074 6564,-1021 9847,-5705 9847,-12129l0 -23539 -4126 641 0 23540c0,4689 -1360,7432 -5721,8111 -4127,641 -5674,-1416 -5674,-6340l0 -23539 -4127 642 0 23539zm24712 6098l17866 -2778 0 -3658 -13739 2137 0 -12004 12426 -1933 0 -3657 -12426 1932 0 -10503 13176 -2049 0 -3658 -17303 2691 0 33480zm25837 -34122l4924 -766c3892,-605 6049,1076 6049,4405 0,6518 -4455,7164 -6893,7543l-4080 635 0 -11817zm-4126 30746l4126 -642 0 -14911 5580 -868c2110,-328 4596,-433 4971,4104l281 5161c141,1619 375,4021 1126,4655l4970 -773c-985,-457 -1641,-1292 -1782,-4975l-281 -5677c-188,-2831 -1782,-4975 -4736,-4844l0 -93c3892,-1496 5158,-5679 5158,-9243 0,-5299 -3283,-7883 -8581,-7059l-10832 1685 0 33480zm-155117 31042l-6190 962 0 7315 2439 -379 0 750c0,1735 -797,3501 -2439,4084l0 3282c5018,-1296 6190,-4901 6190,-9918l0 -6096zm-26681 9120l2860 -445c5111,-795 5768,2995 5768,10591 0,9097 -938,12197 -5627,12926l-3001 467 0 -23539zm-6753 29560l10645 -1656c8956,-1393 11488,-7179 11488,-18996 0,-9893 -1735,-16001 -11066,-14550l-11067 1721 0 33481zm38780 -39511l0 33480 19178 -2983 0 -5533 -12426 1933 0 -9003 11254 -1751 0 -5533 -11254 1750 0 -7877 11957 -1860 0 -5533 -18709 2910zm6987 -3057l4407 -685 4596 -7467 -6471 1006 -2532 7146zm36622 7576c0,-4877 -704,-11848 -10363,-10346 -10129,1575 -11395,8993 -11395,19169 0,10175 1266,17199 11395,15624 8862,-1378 10644,-7845 10644,-15113l-6752 1050c0,7268 -1829,8772 -4221,9144 -2907,452 -4314,-1158 -4314,-11287 0,-9519 844,-13026 4221,-13551 3048,-474 4032,1483 4032,6360l6753 -1050zm4126 21537l6752 -1050 0 -14864 7878 -1225 0 14864 6752 -1050 0 -33480 -6752 1050 0 12801 -7878 1225 0 -12801 -6752 1050 0 33480zm25368 -20685c0,10176 1266,17200 11395,15625 10129,-1575 11395,-8993 11395,-19169 0,-10175 -1266,-17199 -11395,-15624 -10129,1575 -11395,8993 -11395,19168zm6753 -1050c0,-8956 656,-12528 4642,-13148 3986,-620 4642,2748 4642,11704 0,9003 -656,12528 -4642,13148 -3986,620 -4642,-2701 -4642,-11704zm19600 -19788l0 23352c0,8956 5205,9975 10691,9122 5487,-853 10692,-3960 10692,-12447l0 -23352 -6753 1050 0 23351c0,3330 -750,5932 -3939,6428 -3188,495 -3938,-1873 -3938,-5202l0 -23352 -6753 1050zm25650 -3989l0 33480 19178 -2982 0 -5533 -12426 1932 0 -9003 11254 -1750 0 -5533 -11254 1750 0 -7878 11957 -1859 0 -5534 -18709 2910zm22555 29973l6752 -1050 0 -14161 3611 -562c2766,-430 3845,997 3985,3600l188 6395c47,1306 141,2558 844,3386l7315 -1137 0 -282c-1266,-506 -1454,-2212 -1500,-5769 -141,-7058 -798,-9489 -5393,-9383l0 -94c3798,-1388 5580,-4619 5580,-9121 0,-5767 -3329,-8110 -8909,-7242l-12473 1940 0 33480zm6752 -29560l3189 -496c3141,-489 4689,818 4689,3913 0,3611 -1829,5302 -5065,5805l-2813 438 0 -9660zm-75823 70657l0 1360c0,6190 3001,9287 10644,8098 7315,-1137 11629,-4997 11629,-12077 0,-4127 -1313,-6408 -6377,-7871l-5205 -1442c-2860,-727 -3470,-1945 -3470,-4008 0,-2017 797,-4016 3845,-4490 2626,-409 3658,1213 3658,4401l6471 -1006 0 -938c0,-6424 -4361,-8325 -10363,-7391 -6425,999 -10363,4894 -10363,11459 0,5533 2766,7681 8768,8764 4502,801 6002,1787 6002,4788 0,2813 -1969,4432 -4032,4753 -3564,554 -4455,-1323 -4455,-4465l0 -985 -6752 1050zm25649 -27012l0 33480 19179 -2982 0 -5533 -12426 1932 0 -9003 11254 -1750 0 -5533 -11254 1750 0 -7878 11957 -1860 0 -5533 -18710 2910zm22133 -3442l0 23352c0,8956 5205,9975 10691,9122 5487,-853 10691,-3960 10691,-12447l0 -23352 -6752 1050 0 23352c0,3329 -750,5931 -3939,6427 -3188,496 -3939,-1873 -3939,-5202l0 -23352 -6752 1050zm44359 26582l0 -5533 -11957 1859 0 -27947 -6753 1050 0 33481 18710 -2910z"/>
 </g>
</svg>
